Coordinates
version=1
nRows=7
nColumns=42
inDegrees=yes

Units are S.I. units (second, meters, Newtons, ...)
If the header above contains a line with 'inDegrees', this indicates whether rotational values are in degrees (yes) or radians (no).

endheader
time	pelvis_tilt	pelvis_list	pelvis_rotation	pelvis_tx	pelvis_ty	pelvis_tz	hip_flexion_r	hip_adduction_r	hip_rotation_r	knee_angle_r	knee_adduction_r	knee_angle_r_beta	ankle_angle_r	subtalar_angle_r	mtp_angle_r	hip_flexion_l	hip_adduction_l	hip_rotation_l	knee_angle_l	knee_adduction_l	knee_angle_l_beta	ankle_angle_l	subtalar_angle_l	mtp_angle_l	lumbar_extension	lumbar_bending	lumbar_rotation	arm_flex_r	arm_add_r	arm_rot_r	elbow_flex_r	pro_sup_r	wrist_flex_r	wrist_dev_r	arm_flex_l	arm_add_l	arm_rot_l	elbow_flex_l	pro_sup_l	wrist_flex_l	wrist_dev_l
      4.50000000	      0.39263674	    -10.76425359	     -8.06407529	     -0.80570360	      0.82651976	      0.31978004	      3.25276422	     10.43613560	    -24.05950950	     21.16142102	     -2.32334340	      0.36933647	     22.59751329	     32.06263980	     -7.50141786	     28.84778652	    -23.76404440	    -29.69588170	     44.52620632	     -9.57081994	      0.77712890	     18.07175484	     28.53332575	     -7.50141786	    -27.20811978	      9.61557037	      2.65803018	     -8.33910387	     -2.81608297	    -12.01280297	    104.19095491	     90.00000001	      0.00000000	      0.00000000	      4.21301932	     -8.42380764	    -18.70031243	     45.79308026	     90.00000001	      0.00000000	      0.00000000
      4.51000000	      0.28493881	    -10.87307930	     -8.25394137	     -0.80286056	      0.82620115	      0.31879736	      3.14412149	     10.49836331	    -23.88975166	     21.14457120	     -2.40149995	      0.36904239	     22.68882007	     32.02999346	     -7.50140611	     28.75728244	    -23.75348872	    -29.59819587	     43.92905127	     -9.27892111	      0.76670658	     18.04210084	     28.59819650	     -7.50140611	    -27.03633294	      9.63408132	      2.62847156	     -8.35793218	     -2.83072944	    -12.11502376	    104.14314838	     90.00000001	      0.00000000	      0.00000000	      4.07859902	     -8.48402236	    -18.76038487	     45.69932873	     90.00000001	      0.00000000	      0.00000000
      4.52000000	      0.32415775	    -10.90840105	     -8.43787464	     -0.79983167	      0.82620364	      0.31768847	      2.82298656	     10.48171321	    -23.52052503	     21.02964966	     -2.47609029	      0.36703663	     22.92161383	     32.00681452	     -7.50138762	     28.37227901	    -23.63632653	    -29.55810542	     43.33335157	     -8.96438511	      0.75630966	     17.90216482	     28.74878524	     -7.50138762	    -26.97845433	      9.55957001	      2.59461466	     -8.37487804	     -2.79233983	    -12.31048508	    103.99957268	     90.00000001	      0.00000000	      0.00000000	      4.04320645	     -8.49985573	    -18.87395272	     45.46986555	     90.00000001	      0.00000000	      0.00000000
      4.53000000	      0.28958843	    -11.00572178	     -8.63753969	     -0.79684241	      0.82612632	      0.31658162	      2.60005594	     10.50516710	    -23.30685617	     20.97650038	     -2.51174924	      0.36610900	     23.03703118	     31.94823174	     -7.50137645	     28.09658366	    -23.56881808	    -29.54091317	     42.87372113	     -8.82950544	      0.74828760	     17.84182159	     28.77219609	     -7.50137645	    -26.86713268	      9.55516285	      2.58373132	     -8.37626683	     -2.76502149	    -12.42972188	    103.94315482	     90.00000001	      0.00000000	      0.00000000	      3.94729280	     -8.54106097	    -18.95206419	     45.32866155	     90.00000001	      0.00000000	      0.00000000
      4.54000000	      0.22458925	    -11.10481977	     -8.78948353	     -0.79373158	      0.82591069	      0.31529744	      2.44085421	     10.50265104	    -23.20866171	     21.01556912	     -2.56812438	      0.36679088	     23.04510073	     31.90253444	     -7.50137337	     27.97370017	    -23.50436278	    -29.45412730	     42.77874035	     -8.81660812	      0.74662987	     17.81172517	     28.74822273	     -7.50137337	    -26.67637264	      9.59184646	      2.53916762	     -8.44071062	     -2.79334537	    -12.49434842	    103.91820935	     90.00000001	      0.00000000	      0.00000000	      3.81118958	     -8.56340865	    -18.97539530	     45.26953075	     90.00000001	      0.00000000	      0.00000000
      4.55000000	      0.66985226	    -10.95757761	     -9.12185889	     -0.79043281	      0.82698377	      0.31412582	      1.54905889	     10.23841216	    -22.32094640	     20.66360872	     -2.49322882	      0.36064801	     23.30894128	     31.51084579	     -7.50132828	     26.70734005	    -23.09086975	    -29.84931735	     41.95056533	     -8.67003396	      0.73217549	     17.57894220	     28.79918452	     -7.50132828	    -27.05762741	      9.18377915	      2.62558436	     -8.38718672	     -2.62812593	    -12.75331832	    103.72349489	     90.00000001	      0.00000000	      0.00000000	      3.94094272	     -8.57799993	    -19.25753856	     44.86606458	     90.00000001	      0.00000000	      0.00000000
      4.56000000	      0.58484304	    -11.03564835	     -9.31634434	     -0.78725537	      0.82696013	      0.31278817	      1.41210595	     10.23752484	    -22.18662802	     20.69312460	     -2.59630226	      0.36116316	     23.30919561	     31.45747107	     -7.50132375	     26.50567821	    -22.97548432	    -29.69161571	     41.86487862	     -8.67274070	      0.73067997	     17.56766745	     28.78958987	     -7.50132375	    -26.83954794	      9.20427425	      2.58556044	     -8.44979443	     -2.60701755	    -12.79175634	    103.68285507	     90.00000001	      0.00000000	      0.00000000	      3.78873834	     -8.60063852	    -19.27880896	     44.80335367	     90.00000001	      0.00000000	      0.00000000
